<?xml version="1.0" encoding="utf-8" ?>
<svg baseProfile="full" height="2800.0" version="1.1" width="3410.0" xmlns="http://www.w3.org/2000/svg" xmlns:ev="http://www.w3.org/2001/xml-events" xmlns:xlink="http://www.w3.org/1999/xlink"><defs /><rect fill="white" height="2800.0" width="3410.0" x="0" y="0" /><path d="M1290.0,465.0 m-125.0,-15.0 l-145.0,5.0 -195.0,50.0 l-250.0,100.0 -200.0,140.0 l-165.0,170.0 -110.0,200.0 l-60.0,230.0 -15.0,250.0 l65.0,275.0 140.0,295.0 l170.0,240.0 185.0,170.0 l165.0,95.0 200.0,55.0 l285.0,35.0 265.0,15.0 l385.0,-10.0 345.0,-85.0 l195.0,-95.0 225.0,-130.0 l400.0,-335.0 140.0,-185.0 l105.0,-180.0 80.0,-215.0 l10.0,-220.0 -50.0,-240.0 l-165.0,-370.0 -70.0,-90.0 l-230.0,-150.0 -375.0,-130.0 l-295.0,-70.0 -245.0,-30.0 l-530.0,125.0 -290.0,125.0 m-380.0,25.0 l0.0,-435.0 35.0,-55.0 l150.0,130.0 105.0,280.0 m1390.0,-135.0 l90.0,-100.0 210.0,-160.0 l65.0,235.0 30.0,205.0 m-1595.0,590.0 l15.0,60.0 25.0,5.0 l15.0,-35.0 -10.0,-70.0 l-25.0,35.0 m780.0,-70.0 l25.0,20.0 75.0,0.0 l-10.0,-35.0 -25.0,-10.0 l-20.0,15.0 m20.0,730.0 l30.0,25.0 575.0,40.0 l500.0,0.0 160.0,-15.0 m-1265.0,-20.0 l230.0,45.0 420.0,145.0 l205.0,40.0 m-875.0,-240.0 l85.0,185.0 355.0,520.0 l100.0,200.0 " fill="none" stroke="black" stroke-width="1" /></svg>