<?xml version="1.0" encoding="utf-8" ?>
<svg baseProfile="full" height="2515.0" version="1.1" width="1935.0" xmlns="http://www.w3.org/2000/svg" xmlns:ev="http://www.w3.org/2001/xml-events" xmlns:xlink="http://www.w3.org/1999/xlink"><defs /><rect fill="white" height="2515.0" width="1935.0" x="0" y="0" /><path d="M25,2465.0 m430.0,25.0 l105.0,-315.0 65.0,-145.0 l275.0,-445.0 115.0,-215.0 l95.0,-125.0 50.0,455.0 l190.0,760.0 25.0,15.0 l535.0,0.0 -75.0,-140.0 l-185.0,-470.0 -350.0,-1130.0 l-270.0,-710.0 -235.0,565.0 l-195.0,560.0 -240.0,570.0 l-150.0,530.0 -20.0,45.0 l-65.0,70.0 m130.0,-145.0 l220.0,-15.0 m-70.0,-250.0 l220.0,20.0 m-175.0,-125.0 l275.0,5.0 m-210.0,-230.0 l230.0,20.0 m-175.0,-250.0 l35.0,25.0 " fill="none" stroke="black" stroke-width="1" /></svg>