<?xml version="1.0" encoding="utf-8" ?>
<svg baseProfile="full" height="2366.4322876930237" version="1.1" width="2314.8953573405743" xmlns="http://www.w3.org/2000/svg" xmlns:ev="http://www.w3.org/2001/xml-events" xmlns:xlink="http://www.w3.org/1999/xlink"><defs /><rect fill="white" height="2366.4322876930237" width="2314.8953573405743" x="0" y="0" /><path d="M1290.0,380.7176798582077 m-125.0,-15.0 l-145.0,5.0 -195.0,50.0 l-250.0,100.0 -200.0,140.0 l-165.0,170.0 -110.0,200.0 l-60.0,230.0 -15.0,250.0 l65.0,275.0 82.78081893920898,162.07427978515625 l111.75495147705078,140.73285102844238 142.7112102508545,115.1966381072998 l171.84314727783203,82.67532348632812 202.78818130493164,45.782437324523926 l254.5437240600586,9.25307810306549 207.3149299621582,-37.31703281402588 l196.44834518432617,-83.13314437866211 179.0229034423828,-117.8477668762207 l152.3125457763672,-145.73612213134766 119.48927879333496,-161.95213317871094 l86.41868591308594,-170.31585693359375 49.17117118835449,-185.20809173583984 l5.975704789161682,-202.48531341552734 -47.936644554138184,-192.8118133544922 l-103.50286483764648,-177.2365951538086 -151.82462692260742,-159.0549373626709 l-184.71128463745117,-127.29179382324219 -191.07580184936523,-79.9901294708252 l-195.23788452148438,-36.51057243347168 -184.21411514282227,2.897765636444092 l-136.66204452514648,37.209205627441406 m-356.3973617553711,317.8861999511719 l-40.15030384063721,-184.1751480102539 -45.28675556182861,-349.5276641845703 l-5.984956622123718,-216.14032745361328 56.38576030731201,-47.69101619720459 l105.5198860168457,31.612672805786133 190.5391502380371,136.81044578552246 l171.4741325378418,179.03881072998047 108.14875602722168,120.60189247131348 m613.6801147460938,3.044261634349823 l148.64633560180664,-161.51870727539062 220.24442672729492,-200.34000396728516 l158.39990615844727,-102.93652534484863 82.32178688049316,5.16838014125824 l24.620602130889893,76.512451171875 0.3235463798046112,189.6630096435547 l-66.58554077148438,351.89624786376953 -61.99465274810791,215.91876983642578 m-1029.3636322021484,365.51273345947266 l-6.698177456855774,23.637497425079346 15.22054672241211,36.86328172683716 l44.68701362609863,8.287123441696167 27.123277187347412,-31.665329933166504 l-8.459979891777039,-39.931087493896484 -43.99324893951416,-7.97588050365448 l-32.53263711929321,37.74876356124878 -2.8779250383377075,45.39499759674072 l31.884841918945312,23.41984987258911 44.434776306152344,0.5171411857008934 l27.900094985961914,-29.30799961090088 -3.3505332469940186,-35.243868827819824 l-47.454962730407715,-14.891691207885742 -48.552799224853516,22.668585777282715 l-20.441904067993164,46.726789474487305 21.927731037139893,32.6665735244751 l51.33593559265137,9.327885508537292 40.50926685333252,-23.37397336959839 l9.368873238563538,-42.67161846160889 " fill="none" stroke="black" stroke-width="1" /></svg>