<?xml version="1.0" encoding="utf-8" ?>
<svg baseProfile="full" height="1473.918435079977" version="1.1" width="1315.0" xmlns="http://www.w3.org/2000/svg" xmlns:ev="http://www.w3.org/2001/xml-events" xmlns:xlink="http://www.w3.org/1999/xlink"><defs /><rect fill="white" height="1473.918435079977" width="1315.0" x="0" y="0" /><path d="M1290.0,40.0 m-125.0,-15.0 l-145.0,5.0 -195.0,50.0 l-250.0,100.0 -200.0,140.0 l-165.0,170.0 -110.0,200.0 l-60.0,230.0 -15.0,250.0 l65.0,275.0 -0.052495431154966354,0.08910048753023148 l-0.09297335520386696,0.1023724116384983 -0.0925240758806467,0.09782863780856133 l-0.03147723153233528,0.07129504345357418 -0.052495431154966354,0.08910048753023148 l-0.0450708344578743,0.058665769174695015 -0.052495431154966354,0.08910048753023148 l-0.07232228294014931,0.06766716949641705 -0.045366883277893066,0.05034166853874922 l-0.04558032378554344,0.05064724013209343 -0.04736727103590965,0.060332538560032845 l-0.05249544978141785,0.08910048753023148 -0.04541594535112381,0.06043218541890383 l-0.047328248620033264,0.059830350801348686 -0.047516822814941406,0.0602039135992527 l-0.04124045372009277,0.06491742096841335 -0.0474805012345314,0.059874141588807106 l-0.07306710816919804,0.06845848634839058 -0.047400202602148056,0.06022377870976925 l-0.0734699796885252,0.06867854855954647 -0.04735346883535385,0.06045543123036623 l-0.044792722910642624,0.060459673404693604 -0.04742184653878212,0.060188984498381615 l-0.045322440564632416,0.06085652858018875 -0.04107773303985596,0.06486846599727869 l-0.04500601440668106,0.057443478144705296 -0.04474323242902756,0.0503084622323513 l-0.045599695295095444,0.05050337873399258 -0.05249544978141785,0.08910048753023148 l-0.04553517326712608,0.060618408024311066 -0.045226551592350006,0.05011295434087515 l-0.047458261251449585,0.06007329560816288 -0.04750605672597885,0.060066431760787964 l-0.04739638417959213,0.05993125960230827 -0.04524819552898407,0.05019939038902521 l-0.047353506088256836,0.06007157266139984 -0.04564594477415085,0.05043026991188526 l-0.05249544978141785,0.08910048753023148 -0.05249544978141785,0.08910048753023148 l-0.04772018641233444,0.0595518434420228 -0.04566449671983719,0.05047314800322056 l-0.041175540536642075,0.06513319909572601 -0.047570858150720596,0.05972645245492458 l-0.04741327837109566,0.05996543448418379 -0.044954605400562286,0.0575444009155035 l-0.047620199620723724,0.06020462140440941 -0.04745110869407654,0.060028345324099064 l-0.04743870347738266,0.05998234264552593 -0.04141060635447502,0.06513954140245914 l-0.047521889209747314,0.05988898687064648 -0.04744768142700195,0.06003166548907757 l-0.04747606813907623,0.05999842192977667 -0.04110090434551239,0.06489692255854607 l-0.05249544978141785,0.08910048753023148 -0.04590792581439018,0.05013767629861832 l-0.04522021859884262,0.06085140164941549 -0.04752688109874725,0.06010408978909254 l-0.05249544978141785,0.08910048753023148 -0.041222721338272095,0.06472808308899403 l-0.047457627952098846,0.05978682544082403 " fill="none" stroke="black" stroke-width="1" /></svg>