<?xml version="1.0" encoding="utf-8" ?>
<svg baseProfile="full" height="2148.6883610486984" version="1.1" width="2032.805678844452" xmlns="http://www.w3.org/2000/svg" xmlns:ev="http://www.w3.org/2001/xml-events" xmlns:xlink="http://www.w3.org/1999/xlink"><defs /><rect fill="white" height="2148.6883610486984" width="2032.805678844452" x="0" y="0" /><path d="M1290.0,314.64541256427765 m-125.0,-15.0 l-145.0,5.0 -195.0,50.0 l-250.0,100.0 -200.0,140.0 l-165.0,170.0 -110.0,200.0 l-60.0,230.0 -15.0,250.0 l65.0,275.0 91.99905395507812,151.36499404907227 l120.33193588256836,115.67468643188477 156.29362106323242,83.65748405456543 l203.92671585083008,47.770185470581055 251.9550323486328,5.575598478317261 l233.2891845703125,-43.68151664733887 197.07735061645508,-90.84225654602051 l168.10001373291016,-128.26404571533203 135.05691528320312,-149.20390129089355 l100.14190673828125,-170.61161041259766 61.79751396179199,-198.82665634155273 l17.5014066696167,-230.4446029663086 -34.765799045562744,-216.1448860168457 l-82.00888633728027,-174.4894027709961 -114.3538761138916,-135.3915500640869 l-143.88997077941895,-99.85637664794922 -168.49489212036133,-63.08728218078613 l-186.59292221069336,-28.60731601715088 -176.44882202148438,9.134613275527954 m-389.6990203857422,291.3384246826172 l-14.016733169555664,-174.76961135864258 19.956650733947754,-349.32395935058594 l62.34062194824219,-139.9952507019043 98.00058364868164,-1.8866842985153198 l141.17525100708008,117.70062446594238 139.5113754272461,194.9411392211914 l79.09251689910889,149.23556327819824 m460.06011962890625,8.947814702987671 l143.17142486572266,-178.47900390625 191.2716293334961,-232.40447998046875 l102.12032318115234,-63.6761474609375 38.50320816040039,65.12564659118652 l15.40224552154541,230.90320587158203 -54.11350727081299,297.3741912841797 l-65.61533451080322,178.21746826171875 m-846.5397644042969,281.51512145996094 l6.208240389823914,4.859934449195862 40.339579582214355,21.752710342407227 l49.58773136138916,10.78351616859436 43.2749605178833,-18.463300466537476 l17.21871256828308,-54.78036880493164 -34.80401039123535,-38.666815757751465 l-63.736538887023926,-1.2526556849479675 -37.49702453613281,19.557476043701172 l6.030825972557068,6.028429865837097 31.528639793395996,-16.810593605041504 l27.67331600189209,-37.87193775177002 -12.75125503540039,-27.16768741607666 l-47.26064682006836,-2.2386109828948975 -33.317389488220215,23.780155181884766 l2.124841809272766,12.139425277709961 26.264727115631104,-7.313860654830933 l25.877504348754883,-35.53914546966553 -6.465838551521301,-33.416337966918945 l-33.88958692550659,-8.3767831325531 -37.22047567367554,26.184210777282715 l-5.334017276763916,24.911937713623047 23.484511375427246,3.3810490369796753 l29.398915767669678,-26.56376838684082 5.84718644618988,-41.83219909667969 " fill="none" stroke="black" stroke-width="1" /></svg>